<svg width="46" height="30" viewBox="0 0 46 30" fill="none" xmlns="http://www.w3.org/2000/svg">
<g clip-path="url(#clip0_3_9655)">
<path d="M44.4111 12.6172V14.9023H36.8428V12.6172H44.4111ZM37.7998 0.683594V14.9023H34.8701V0.683594H37.7998ZM43.4248 6.47461V8.70117H36.8428V6.47461H43.4248ZM44.4014 0.683594V2.97852H36.8428V0.683594H44.4014Z" fill="black"/>
<path d="M8.25879 11.4004C8.25879 11.1465 8.21973 10.9186 8.1416 10.7168C8.06999 10.5085 7.93327 10.3197 7.73145 10.1504C7.52962 9.97461 7.24642 9.80208 6.88184 9.63281C6.51725 9.46354 6.04525 9.28776 5.46582 9.10547C4.82129 8.89714 4.20931 8.66276 3.62988 8.40234C3.05697 8.14193 2.54915 7.83919 2.10645 7.49414C1.67025 7.14258 1.3252 6.73568 1.07129 6.27344C0.823893 5.8112 0.700195 5.27409 0.700195 4.66211C0.700195 4.06966 0.830404 3.53255 1.09082 3.05078C1.35124 2.5625 1.71582 2.14583 2.18457 1.80078C2.65332 1.44922 3.20671 1.17904 3.84473 0.990234C4.48926 0.801432 5.19564 0.707031 5.96387 0.707031C7.01204 0.707031 7.92676 0.895833 8.70801 1.27344C9.48926 1.65104 10.0947 2.16862 10.5244 2.82617C10.9606 3.48372 11.1787 4.23568 11.1787 5.08203H8.26855C8.26855 4.66536 8.18066 4.30078 8.00488 3.98828C7.83561 3.66927 7.5752 3.41862 7.22363 3.23633C6.87858 3.05404 6.44238 2.96289 5.91504 2.96289C5.40723 2.96289 4.98405 3.04102 4.64551 3.19727C4.30697 3.34701 4.05306 3.55208 3.88379 3.8125C3.71452 4.06641 3.62988 4.35286 3.62988 4.67188C3.62988 4.91276 3.68848 5.13086 3.80566 5.32617C3.92936 5.52148 4.11165 5.70378 4.35254 5.87305C4.59342 6.04232 4.88965 6.20182 5.24121 6.35156C5.59277 6.5013 5.99967 6.64779 6.46191 6.79102C7.23665 7.02539 7.91699 7.28906 8.50293 7.58203C9.09538 7.875 9.59017 8.20378 9.9873 8.56836C10.3844 8.93294 10.6839 9.34635 10.8857 9.80859C11.0876 10.2708 11.1885 10.7949 11.1885 11.3809C11.1885 11.9993 11.068 12.5527 10.8271 13.041C10.5863 13.5293 10.238 13.9427 9.78223 14.2812C9.3265 14.6198 8.78288 14.877 8.15137 15.0527C7.51986 15.2285 6.81348 15.3164 6.03223 15.3164C5.3291 15.3164 4.63574 15.2253 3.95215 15.043C3.26855 14.8542 2.64681 14.571 2.08691 14.1934C1.53353 13.8158 1.09082 13.334 0.758789 12.748C0.426758 12.1621 0.260742 11.4688 0.260742 10.668H3.2002C3.2002 11.1107 3.26855 11.485 3.40527 11.791C3.54199 12.097 3.73405 12.3444 3.98145 12.5332C4.23535 12.722 4.53483 12.8587 4.87988 12.9434C5.23145 13.028 5.61556 13.0703 6.03223 13.0703C6.54004 13.0703 6.95671 12.9987 7.28223 12.8555C7.61426 12.7122 7.8584 12.5137 8.01465 12.2598C8.17741 12.0059 8.25879 11.7194 8.25879 11.4004Z" fill="black"/>
<path d="M8.25879 25.4004C8.25879 25.1465 8.21973 24.9186 8.1416 24.7168C8.06999 24.5085 7.93327 24.3197 7.73145 24.1504C7.52962 23.9746 7.24642 23.8021 6.88184 23.6328C6.51725 23.4635 6.04525 23.2878 5.46582 23.1055C4.82129 22.8971 4.20931 22.6628 3.62988 22.4023C3.05697 22.1419 2.54915 21.8392 2.10645 21.4941C1.67025 21.1426 1.3252 20.7357 1.07129 20.2734C0.823893 19.8112 0.700195 19.2741 0.700195 18.6621C0.700195 18.0697 0.830404 17.5326 1.09082 17.0508C1.35124 16.5625 1.71582 16.1458 2.18457 15.8008C2.65332 15.4492 3.20671 15.179 3.84473 14.9902C4.48926 14.8014 5.19564 14.707 5.96387 14.707C7.01204 14.707 7.92676 14.8958 8.70801 15.2734C9.48926 15.651 10.0947 16.1686 10.5244 16.8262C10.9606 17.4837 11.1787 18.2357 11.1787 19.082H8.26855C8.26855 18.6654 8.18066 18.3008 8.00488 17.9883C7.83561 17.6693 7.5752 17.4186 7.22363 17.2363C6.87858 17.054 6.44238 16.9629 5.91504 16.9629C5.40723 16.9629 4.98405 17.041 4.64551 17.1973C4.30697 17.347 4.05306 17.5521 3.88379 17.8125C3.71452 18.0664 3.62988 18.3529 3.62988 18.6719C3.62988 18.9128 3.68848 19.1309 3.80566 19.3262C3.92936 19.5215 4.11165 19.7038 4.35254 19.873C4.59342 20.0423 4.88965 20.2018 5.24121 20.3516C5.59277 20.5013 5.99967 20.6478 6.46191 20.791C7.23665 21.0254 7.91699 21.2891 8.50293 21.582C9.09538 21.875 9.59017 22.2038 9.9873 22.5684C10.3844 22.9329 10.6839 23.3464 10.8857 23.8086C11.0876 24.2708 11.1885 24.7949 11.1885 25.3809C11.1885 25.9993 11.068 26.5527 10.8271 27.041C10.5863 27.5293 10.238 27.9427 9.78223 28.2812C9.3265 28.6198 8.78288 28.877 8.15137 29.0527C7.51986 29.2285 6.81348 29.3164 6.03223 29.3164C5.3291 29.3164 4.63574 29.2253 3.95215 29.043C3.26855 28.8542 2.64681 28.571 2.08691 28.1934C1.53353 27.8158 1.09082 27.334 0.758789 26.748C0.426758 26.1621 0.260742 25.4688 0.260742 24.668H3.2002C3.2002 25.1107 3.26855 25.485 3.40527 25.791C3.54199 26.097 3.73405 26.3444 3.98145 26.5332C4.23535 26.722 4.53483 26.8587 4.87988 26.9434C5.23145 27.028 5.61556 27.0703 6.03223 27.0703C6.54004 27.0703 6.95671 26.9987 7.28223 26.8555C7.61426 26.7122 7.8584 26.5137 8.01465 26.2598C8.17741 26.0059 8.25879 25.7194 8.25879 25.4004Z" fill="black"/>
<path d="M20.6709 6.69336V8.97852H13.249V6.69336H20.6709ZM14.1182 0.902344V15.1211H11.1885V0.902344H14.1182ZM22.7607 0.902344V15.1211H19.8408V0.902344H22.7607Z" fill="black"/>
<path d="M20.6709 20.6934V22.9785H13.249V20.6934H20.6709ZM14.1182 14.9023V29.1211H11.1885V14.9023H14.1182ZM22.7607 14.9023V29.1211H19.8408V14.9023H22.7607Z" fill="black"/>
<path d="M34.8701 7.67969V8.35352C34.8701 9.43424 34.7236 10.4043 34.4307 11.2637C34.1377 12.123 33.7243 12.8555 33.1904 13.4609C32.6566 14.0599 32.0186 14.5189 31.2764 14.8379C30.5407 15.1569 29.7236 15.3164 28.8252 15.3164C27.9333 15.3164 27.1162 15.1569 26.374 14.8379C25.6383 14.5189 25.0003 14.0599 24.46 13.4609C23.9196 12.8555 23.4997 12.123 23.2002 11.2637C22.9072 10.4043 22.7607 9.43424 22.7607 8.35352V7.67969C22.7607 6.59245 22.9072 5.6224 23.2002 4.76953C23.4932 3.91016 23.9066 3.17773 24.4404 2.57227C24.9808 1.9668 25.6188 1.50456 26.3545 1.18555C27.0967 0.866536 27.9137 0.707031 28.8057 0.707031C29.7041 0.707031 30.5212 0.866536 31.2568 1.18555C31.999 1.50456 32.637 1.9668 33.1709 2.57227C33.7113 3.17773 34.1279 3.91016 34.4209 4.76953C34.7204 5.6224 34.8701 6.59245 34.8701 7.67969ZM31.9111 8.35352V7.66016C31.9111 6.90495 31.8428 6.24089 31.7061 5.66797C31.5693 5.09505 31.3675 4.61328 31.1006 4.22266C30.8337 3.83203 30.5081 3.53906 30.124 3.34375C29.7399 3.14193 29.3005 3.04102 28.8057 3.04102C28.3109 3.04102 27.8714 3.14193 27.4873 3.34375C27.1097 3.53906 26.7874 3.83203 26.5205 4.22266C26.2601 4.61328 26.0615 5.09505 25.9248 5.66797C25.7881 6.24089 25.7197 6.90495 25.7197 7.66016V8.35352C25.7197 9.10221 25.7881 9.76628 25.9248 10.3457C26.0615 10.9186 26.2633 11.4036 26.5303 11.8008C26.7972 12.1914 27.1227 12.4876 27.5068 12.6895C27.891 12.8913 28.3304 12.9922 28.8252 12.9922C29.32 12.9922 29.7594 12.8913 30.1436 12.6895C30.5277 12.4876 30.8499 12.1914 31.1104 11.8008C31.3708 11.4036 31.5693 10.9186 31.7061 10.3457C31.8428 9.76628 31.9111 9.10221 31.9111 8.35352Z" fill="black"/>
<path d="M34.8701 21.6797V22.3535C34.8701 23.4342 34.7236 24.4043 34.4307 25.2637C34.1377 26.123 33.7243 26.8555 33.1904 27.4609C32.6566 28.0599 32.0186 28.5189 31.2764 28.8379C30.5407 29.1569 29.7236 29.3164 28.8252 29.3164C27.9333 29.3164 27.1162 29.1569 26.374 28.8379C25.6383 28.5189 25.0003 28.0599 24.46 27.4609C23.9196 26.8555 23.4997 26.123 23.2002 25.2637C22.9072 24.4043 22.7607 23.4342 22.7607 22.3535V21.6797C22.7607 20.5924 22.9072 19.6224 23.2002 18.7695C23.4932 17.9102 23.9066 17.1777 24.4404 16.5723C24.9808 15.9668 25.6188 15.5046 26.3545 15.1855C27.0967 14.8665 27.9137 14.707 28.8057 14.707C29.7041 14.707 30.5212 14.8665 31.2568 15.1855C31.999 15.5046 32.637 15.9668 33.1709 16.5723C33.7113 17.1777 34.1279 17.9102 34.4209 18.7695C34.7204 19.6224 34.8701 20.5924 34.8701 21.6797ZM31.9111 22.3535V21.6602C31.9111 20.9049 31.8428 20.2409 31.7061 19.668C31.5693 19.0951 31.3675 18.6133 31.1006 18.2227C30.8337 17.832 30.5081 17.5391 30.124 17.3438C29.7399 17.1419 29.3005 17.041 28.8057 17.041C28.3109 17.041 27.8714 17.1419 27.4873 17.3438C27.1097 17.5391 26.7874 17.832 26.5205 18.2227C26.2601 18.6133 26.0615 19.0951 25.9248 19.668C25.7881 20.2409 25.7197 20.9049 25.7197 21.6602V22.3535C25.7197 23.1022 25.7881 23.7663 25.9248 24.3457C26.0615 24.9186 26.2633 25.4036 26.5303 25.8008C26.7972 26.1914 27.1227 26.4876 27.5068 26.6895C27.891 26.8913 28.3304 26.9922 28.8252 26.9922C29.32 26.9922 29.7594 26.8913 30.1436 26.6895C30.5277 26.4876 30.8499 26.1914 31.1104 25.8008C31.3708 25.4036 31.5693 24.9186 31.7061 24.3457C31.8428 23.7663 31.9111 23.1022 31.9111 22.3535Z" fill="black"/>
<path d="M40.4072 24.0527H36.7842V21.7676H40.4072C40.9671 21.7676 41.4229 21.6764 41.7744 21.4941C42.126 21.3053 42.3831 21.0449 42.5459 20.7129C42.7087 20.3809 42.79 20.0065 42.79 19.5898C42.79 19.1667 42.7087 18.7728 42.5459 18.4082C42.3831 18.0436 42.126 17.7507 41.7744 17.5293C41.4229 17.3079 40.9671 17.1973 40.4072 17.1973H37.7998V29.1211H34.8701V14.9023H40.4072C41.5205 14.9023 42.4743 15.1042 43.2686 15.5078C44.0693 15.9049 44.6813 16.4551 45.1045 17.1582C45.5277 17.8613 45.7393 18.6654 45.7393 19.5703C45.7393 20.4883 45.5277 21.2826 45.1045 21.9531C44.6813 22.6237 44.0693 23.1413 43.2686 23.5059C42.4743 23.8704 41.5205 24.0527 40.4072 24.0527Z" fill="black"/>
</g>
<defs>
<clipPath id="clip0_3_9655">
<rect width="46" height="29" fill="white" transform="translate(0 0.5)"/>
</clipPath>
</defs>
</svg>
